<?xml version="1.0" encoding="utf-8"?>
<!-- Generator: Adobe Illustrator 23.0.2, SVG Export Plug-In . SVG Version: 6.00 Build 0)  -->
<svg version="1.1" id="Capa_1" xmlns="http://www.w3.org/2000/svg" xmlns:xlink="http://www.w3.org/1999/xlink" x="0px" y="0px"
	 viewBox="0 0 97 97" style="enable-background:new 0 0 97 97;" xml:space="preserve">
<style type="text/css">
	.st0{fill:#424648;}
</style>
<g>
	<path class="st0" d="M48.5,0.1C21.7,0.1,0,21.8,0,48.5c0,26.7,21.7,48.4,48.5,48.4S97,75.2,97,48.5C97,21.8,75.2,0.1,48.5,0.1z
		 M80.4,22.9c5.5,6.9,8.9,15.5,9,24.9c-1.8-0.4-9.6-1.8-18.9-1.8c-3,0-6.2,0.2-9.3,0.5c-0.3-0.6-0.5-1.3-0.8-2
		c-0.8-1.9-1.7-3.9-2.6-5.7C72,33,78.9,24.8,80.4,22.9z M48.5,7.6c10.3,0,19.8,3.8,27,10.2c-1.1,1.6-7.3,9.3-21.2,14.5
		C47.9,20.6,40.9,10.9,39.2,8.7C42.2,8,45.3,7.6,48.5,7.6z M30.9,11.6c1.4,1.9,8.4,11.7,15,23.3c-17.6,4.6-33.2,4.9-37,4.9
		c-0.2,0-0.3,0-0.4,0C11.2,27.4,19.6,17,30.9,11.6z M7.5,48.5c0-0.3,0-0.7,0-1c0.2,0,0.6,0,1.1,0c5.1,0,22.7-0.4,40.9-5.8
		c1.1,2.2,2.2,4.3,3.1,6.5c-0.5,0.1-0.9,0.3-1.4,0.4c-20.5,6.6-31.7,24.1-33.5,27C11.4,68.4,7.5,58.9,7.5,48.5z M48.5,89.4
		c-9.4,0-18.1-3.2-25-8.5c1.2-2.3,9.7-17.6,32.1-25.4c0,0,0,0,0,0c5.6,14.6,8,26.9,8.7,30.7C59.4,88.3,54.1,89.4,48.5,89.4z
		 M71.7,82.2c-0.5-3.2-2.8-14.7-7.8-28.7c2.9-0.4,5.6-0.6,8.2-0.6c8.6,0,15.3,1.9,16.8,2.3C87,66.4,80.6,76.1,71.7,82.2z"/>
</g>
</svg>
